<?xml version="1.0" encoding="UTF-8"?>
<svg version="1.1" xmlns="http://www.w3.org/2000/svg" width="1080" height="187">
<path d="M0 0 C2.0625 1.875 2.0625 1.875 3.0625 3.875 C3.3925 0.905 3.7225 -2.065 4.0625 -5.125 C10.0025 -5.125 15.9425 -5.125 22.0625 -5.125 C22.13049731 4.3506862 22.18544328 13.82620819 22.21793652 23.30208397 C22.23353804 27.70294698 22.25467452 32.10363322 22.28881836 36.50439453 C22.32160985 40.75786685 22.3393944 45.01117001 22.34713173 49.26475906 C22.35263995 50.88093348 22.36339542 52.49709949 22.37969017 54.11320114 C22.49399236 65.92826871 22.14890267 76.36832111 14.1953125 85.76953125 C4.86654444 94.97869972 -6.17075078 97.89677177 -19 98.25 C-30.47991169 97.94420879 -41.52946456 95.2574033 -49.890625 86.9296875 C-51.3039562 85.2984127 -52.63150622 83.59341287 -53.9375 81.875 C-50.6375 78.575 -47.3375 75.275 -43.9375 71.875 C-39.9375 73.875 -39.9375 73.875 -37.875 75.75 C-30.81887348 80.85443195 -22.57252731 83.05119973 -13.9375 81.875 C-8.35164378 80.60103279 -4.55272967 78.44720223 -0.9375 73.875 C1.41799181 68.93968383 1.27643879 64.22346969 1.0625 58.875 C0.35287109 59.58076172 0.35287109 59.58076172 -0.37109375 60.30078125 C-6.8082121 66.36145993 -12.46325774 68.90968954 -21.3125 69.3125 C-30.67331471 68.98565591 -38.19950582 65.69989403 -44.9296875 59.2109375 C-52.58807426 50.30098559 -55.45768778 40.25953775 -55.18359375 28.69921875 C-54.21074298 17.53459801 -49.69001737 8.08337652 -41.5 0.4375 C-29.07743522 -9.90074183 -12.77435544 -9.24102309 0 0 Z M-30.640625 17.9609375 C-34.81981509 24.12901926 -34.63433707 30.67144679 -33.9375 37.875 C-32.06658078 44.54014973 -27.93647299 48.56664974 -22.015625 51.984375 C-17.74210995 53.81588145 -13.15743379 53.53701597 -8.75 52.22265625 C-3.65255467 49.97321541 -0.41901916 46.90865066 2.0625 41.875 C2.72323765 38.65608433 2.72019925 35.58786877 2.625 32.3125 C2.64143555 31.0759668 2.64143555 31.0759668 2.65820312 29.81445312 C2.58285642 23.53053823 0.92931666 19.89578891 -3.46484375 15.265625 C-13.32437537 7.29060219 -22.5309015 8.41239209 -30.640625 17.9609375 Z " fill="#4F46E1" transform="translate(729.9375,64.125)"/>
<path d="M0 0 C6.6 0 13.2 0 20 0 C20.0093457 2.49860596 20.01869141 4.99721191 20.02832031 7.5715332 C20.06205559 15.81788348 20.11758499 24.06398258 20.18390274 32.31013203 C20.22344771 37.31085352 20.25560162 42.31139707 20.27099609 47.31225586 C20.28611661 52.13649321 20.3204796 56.9602416 20.36830902 61.7842617 C20.38317052 63.62664737 20.39104373 65.46910282 20.39188385 67.31154823 C20.39424101 69.8883264 20.42121762 72.46373937 20.45410156 75.0402832 C20.4490712 75.80560867 20.44404083 76.57093414 20.43885803 77.35945129 C20.44085315 79.72871635 20.44085315 79.72871635 21 83 C22.91867738 84.80073171 22.91867738 84.80073171 25 86 C25.32442838 88.69662492 25.4257178 90.94802797 25.3125 93.625 C25.30283203 94.31851563 25.29316406 95.01203125 25.28320312 95.7265625 C25.1685424 100.8314576 25.1685424 100.8314576 24 102 C10.53212344 103.2486773 10.53212344 103.2486773 6.25 99.75 C4.38842442 97.47474096 3.23019677 95.61696404 2 93 C0.6078125 94.36125 0.6078125 94.36125 -0.8125 95.75 C-7.56190976 101.48088716 -15.53200534 103.7038039 -24.3046875 103.31640625 C-35.06581499 102.05314346 -42.8697334 97.28455714 -49.68359375 88.9296875 C-56.51115704 78.92133064 -56.96267048 67.73041522 -56 56 C-55.17307461 51.99295582 -53.89669331 48.61612557 -52 45 C-51.57589844 44.19046875 -51.15179688 43.3809375 -50.71484375 42.546875 C-47.2273997 36.67942039 -42.92280448 33.2844643 -37 30 C-36.37609375 29.63390625 -35.7521875 29.2678125 -35.109375 28.890625 C-28.06122276 25.9147385 -19.3943364 26.40895453 -12.296875 28.90234375 C-8.07701914 30.91897555 -4.30823124 33.69176876 -1 37 C-0.67 24.79 -0.34 12.58 0 0 Z M-31.3125 50.1875 C-34.81301447 56.02169078 -36.83968323 62.16257941 -36 69 C-33.77299742 76.98952904 -30.92281335 81.2059708 -23.6875 85.3125 C-18.90923074 86.53484795 -14.41409514 87.02854053 -9.78125 85.0546875 C-5.67098772 82.61613637 -2.52308448 80.12669349 0 76 C0.57985059 72.67470399 0.5588677 69.43022295 0.5 66.0625 C0.51546875 65.18142578 0.5309375 64.30035156 0.546875 63.39257812 C0.51319064 57.77149982 -0.2048779 54.41073014 -4 50 C-5.73651233 48.34753453 -5.73651233 48.34753453 -7.5625 47.1875 C-8.14128906 46.78917969 -8.72007812 46.39085937 -9.31640625 45.98046875 C-17.14552034 41.42105428 -25.21599307 44.42053399 -31.3125 50.1875 Z " fill="#4F46E0" transform="translate(271,30)"/>
<path d="M0 0 C8.63794106 7.89168266 11.40911869 17.95633009 11.99609375 29.40234375 C11.66609375 31.05234375 11.33609375 32.70234375 10.99609375 34.40234375 C-7.48390625 34.40234375 -25.96390625 34.40234375 -45.00390625 34.40234375 C-41.3961473 44.30180246 -41.3961473 44.30180246 -34.17578125 49.47265625 C-29.37925866 51.52584398 -23.52893056 51.20275995 -18.61328125 49.64453125 C-14.84601616 47.87252137 -12.12245179 46.10979844 -10.00390625 42.40234375 C-3.95589554 42.95216291 1.30210481 44.30663949 6.99609375 46.40234375 C4.84935201 53.4865915 -0.37626938 58.70263088 -6.68359375 62.3359375 C-17.48063411 67.29821363 -30.71200791 68.37087324 -42.00390625 64.40234375 C-52.71153761 59.51252543 -59.47973881 52.79698978 -64.046875 41.91796875 C-67.7457356 31.01240791 -66.39999843 20.92839056 -62.00390625 10.40234375 C-56.67451344 0.89458083 -48.3651088 -5.50120491 -38.00390625 -8.59765625 C-23.86316367 -11.52332713 -11.28529019 -8.99743409 0 0 Z M-43.00390625 13.40234375 C-44.75478919 16.82073424 -45.00390625 18.46618394 -45.00390625 22.40234375 C-33.12390625 22.40234375 -21.24390625 22.40234375 -9.00390625 22.40234375 C-10.10983527 15.76676965 -11.61927577 12.55432735 -16.56640625 8.08984375 C-25.71159832 1.75855693 -36.3099176 5.59269032 -43.00390625 13.40234375 Z " fill="#4E45E0" transform="translate(369.00390625,66.59765625)"/>
<path d="M0 0 C7.87937976 7.1302838 12.55486055 15.22518935 13.59765625 25.87890625 C14.13658928 37.93807173 11.45917072 47.97313436 3.21875 57.0078125 C-3.43842782 64.05755117 -12.06035574 67.45078186 -21.65625 68.24609375 C-32.84902781 68.51192222 -43.11410187 66.52301006 -51.78125 59.05078125 C-60.10100729 50.55227918 -63.80635603 41.88797713 -64.21875 30.0703125 C-64.00987647 20.92960904 -61.33405585 13.29587018 -55.78125 6.0078125 C-55.245 5.1828125 -54.70875 4.3578125 -54.15625 3.5078125 C-40.4160049 -10.9556034 -15.51772088 -12.04134835 0 0 Z M-39.65625 16.0703125 C-43.37647645 21.95962013 -44.42890142 29.02137291 -43.15625 35.8203125 C-41.40501031 42.06677254 -38.10188588 46.32429535 -32.78125 50.0078125 C-27.6520396 51.7175493 -22.71977784 51.65398845 -17.59375 49.9453125 C-12.77045814 46.62260033 -9.58976545 43.02910113 -7.40625 37.5703125 C-5.97094365 29.38906631 -6.68292713 23.31187872 -10.78125 16.0078125 C-12.66648126 13.84534134 -14.34869443 12.62951622 -16.78125 11.0078125 C-17.4 10.5746875 -18.01875 10.1415625 -18.65625 9.6953125 C-26.60585 7.12338309 -34.4183072 9.6803295 -39.65625 16.0703125 Z " fill="#4F45E1" transform="translate(194.78125,64.9921875)"/>
<path d="M0 0 C6.48029146 6.01556937 8.44513502 13.58251888 8.84521484 22.21582031 C8.86277832 23.42850586 8.8803418 24.64119141 8.8984375 25.890625 C8.92646606 27.22917973 8.95513014 28.56772129 8.984375 29.90625 C9.02584294 31.99544453 9.06277326 34.08438136 9.08886719 36.17382812 C9.11636572 38.20492647 9.16217663 40.23494107 9.2109375 42.265625 C9.2406665 44.07788574 9.2406665 44.07788574 9.27099609 45.92675781 C9.40844238 46.87905273 9.54588867 47.83134766 9.6875 48.8125 C11.1725 49.8025 11.1725 49.8025 12.6875 50.8125 C12.93640658 53.42305594 13.0147977 55.77344922 12.9375 58.375 C12.93234375 59.07302734 12.9271875 59.77105469 12.921875 60.49023438 C12.8416718 65.6583282 12.8416718 65.6583282 11.6875 66.8125 C9.44223532 66.99176852 7.18947261 67.08061465 4.9375 67.125 C3.08898437 67.18107422 3.08898437 67.18107422 1.203125 67.23828125 C-2.89033871 66.74251731 -4.44457374 65.71199976 -7.3125 62.8125 C-8.625 60.0625 -8.625 60.0625 -9.3125 57.8125 C-9.80878906 58.21082031 -10.30507813 58.60914062 -10.81640625 59.01953125 C-19.70138795 65.9488054 -27.99468937 68.7077895 -39.3125 67.8125 C-46.42561773 66.53307783 -51.49426754 63.14089825 -56.3125 57.8125 C-59.76477148 52.13295659 -60.75406573 47.43598594 -60.3125 40.8125 C-58.98196924 35.39608737 -56.66007993 30.44231909 -52.3125 26.8125 C-43.99751952 21.81811237 -37.48073778 20.63153646 -27.9375 20.625 C-27.00421875 20.61275391 -26.0709375 20.60050781 -25.109375 20.58789062 C-20.10310233 20.57725407 -16.00294021 20.82808299 -11.3125 22.8125 C-12.73876516 15.41342292 -12.73876516 15.41342292 -16.625 9.125 C-25.17932157 6.08024148 -34.02053559 6.93928713 -42.1796875 10.72265625 C-42.88351562 11.08230469 -43.58734375 11.44195312 -44.3125 11.8125 C-45.27542969 12.27462891 -45.27542969 12.27462891 -46.2578125 12.74609375 C-47.62215276 13.40922658 -48.97011391 14.10598101 -50.3125 14.8125 C-51.37349328 13.07414943 -52.41076483 11.32130196 -53.4375 9.5625 C-54.01757812 8.58796875 -54.59765625 7.6134375 -55.1953125 6.609375 C-56.3125 3.8125 -56.3125 3.8125 -55.859375 1.6484375 C-50.67701874 -4.50233887 -40.26232645 -7.01233997 -32.5546875 -8.00390625 C-20.28603955 -8.69863692 -9.89040639 -7.79298931 0 0 Z M-40.375 38.125 C-41.68220244 41.87231365 -41.46480564 44.01666967 -40.3125 47.8125 C-37.56883219 51.20598387 -36.03452724 52.51324527 -31.75 53.2578125 C-25.51013218 53.51780699 -20.35159943 52.63035886 -15.3125 48.8125 C-12.1960955 45.38445504 -11.09462644 42.98339124 -11.0625 38.4375 C-11.145 37.24125 -11.2275 36.045 -11.3125 34.8125 C-21.45022853 30.69863915 -32.41520711 29.20038373 -40.375 38.125 Z " fill="#4F46E1" transform="translate(445.3125,65.1875)"/>
<path d="M0 0 C6.39861665 5.87831392 11.07730379 14.65389613 11.61328125 23.37890625 C11.82019733 32.15591024 11.85158048 39.66988362 7.375 47.5 C6.818125 48.53125 6.26125 49.5625 5.6875 50.625 C-0.63117352 58.48064816 -7.68405204 63.64908054 -17.4375 66.25 C-30.34094753 67.2620351 -41.83349905 66.55516178 -52.4375 58.44921875 C-60.19551809 51.53627049 -65.06407556 42.12641495 -65.828125 31.73828125 C-66.02420761 19.49945839 -62.96836068 10.34159399 -54.5859375 1.30078125 C-39.3574105 -13.25510764 -16.06761556 -12.92919983 0 0 Z M-40.203125 13.21875 C-45.33656053 20.18134072 -45.30064123 27.02633285 -44.625 35.5 C-42.86546415 41.76356512 -39.34994353 45.35931668 -33.7421875 48.58203125 C-29.0970483 50.59606762 -24.13551406 50.00350469 -19.4375 48.4375 C-14.00445407 44.69473502 -9.91947136 40.10180392 -8.625 33.5 C-8.03685698 27.15874889 -8.1574709 21.02067133 -11.625 15.5 C-16.0725909 10.71883978 -19.65275457 7.75188521 -26.3125 7.1875 C-31.82309583 7.28879772 -36.44223225 9.1227282 -40.203125 13.21875 Z " fill="#4F45E1" transform="translate(573.625,66.5)"/>
<path d="M0 0 C7.02448825 9.03148489 7.3370403 17.6506107 7.28515625 28.7734375 C7.2837413 29.91914215 7.28232635 31.0648468 7.28086853 32.24526978 C7.2752858 35.89270678 7.26273641 39.54008165 7.25 43.1875 C7.24498277 45.66536369 7.24042025 48.14322835 7.23632812 50.62109375 C7.22532201 56.68491965 7.2080692 62.7486993 7.1875 68.8125 C0.5875 68.8125 -6.0125 68.8125 -12.8125 68.8125 C-12.84988281 65.57308594 -12.88726563 62.33367187 -12.92578125 58.99609375 C-12.97204381 55.84522906 -13.02326035 52.69448094 -13.07495117 49.54370117 C-13.10812552 47.3605055 -13.1361806 45.17722561 -13.15893555 42.99389648 C-13.19261904 39.84843183 -13.24494276 36.70373376 -13.30078125 33.55859375 C-13.30717117 32.5885289 -13.3135611 31.61846405 -13.32014465 30.6190033 C-13.44199251 24.95309334 -14.02161392 20.79131564 -16.8125 15.8125 C-20.88905026 13.09479983 -24.02636859 13.06902328 -28.8125 13.8125 C-34.10025354 15.89049437 -37.16241616 18.69287118 -39.9460907 23.69264221 C-41.56349405 27.6499694 -41.41613823 31.6793043 -41.421875 35.90234375 C-41.43841125 36.84686905 -41.45494751 37.79139435 -41.47198486 38.76454163 C-41.52028711 41.75976174 -41.54179638 44.75447479 -41.5625 47.75 C-41.59067453 49.78973881 -41.62060402 51.82945418 -41.65234375 53.86914062 C-41.72932271 58.85048967 -41.77000756 63.83026185 -41.8125 68.8125 C-48.4125 68.8125 -55.0125 68.8125 -61.8125 68.8125 C-61.8125 45.0525 -61.8125 21.2925 -61.8125 -3.1875 C-55.8725 -3.1875 -49.9325 -3.1875 -43.8125 -3.1875 C-43.4825 -0.2175 -43.1525 2.7525 -42.8125 5.8125 C-42.255625 5.34199219 -41.69875 4.87148437 -41.125 4.38671875 C-29.64603777 -4.97871834 -12.87220592 -10.01171571 0 0 Z " fill="#4F46DF" transform="translate(657.8125,62.1875)"/>
<path d="M0 0 C8.08237841 7.45655998 8.08237841 7.45655998 9 13 C6.60872043 13.86928276 4.21338274 14.72051601 1.8125 15.5625 C1.13896484 15.80935547 0.46542969 16.05621094 -0.22851562 16.31054688 C-4.18776914 17.68180053 -7.0046869 18.46376958 -11 17 C-12.6953125 15.84375 -12.6953125 15.84375 -14.125 14.5 C-17.93752005 11.18476518 -20.79099412 10.63949162 -25.80859375 10.72265625 C-31.28529068 11.41578545 -35.04272 13.7972636 -38.4375 18.0625 C-42.05266737 24.85901466 -42.19629328 33.07767224 -40.38671875 40.5234375 C-38.42270686 45.03979965 -35.50724795 47.79879287 -31.20703125 50.15234375 C-26.56512144 51.93516575 -22.39216575 51.84525925 -17.72265625 50.1953125 C-14.04545201 48.47972716 -12.30492239 47.45738358 -10 44 C-3.3227105 44.60702632 2.70127996 46.77631394 9 49 C8.07295778 54.35723438 6.38129254 57.18063723 1.98046875 60.54296875 C-8.93006537 68.07067969 -19.24324404 70.19519511 -32.4609375 68.7265625 C-41.01703269 67.13542901 -49.52079993 62.4448556 -54.9140625 55.5546875 C-61.74691009 44.85301297 -64.69407586 35.1491932 -62.56640625 22.40234375 C-59.95882107 12.18255337 -54.39181466 4.00856595 -45.484375 -1.6328125 C-31.35765836 -9.40694902 -13.48149175 -9.11918792 0 0 Z " fill="#4F45E0" transform="translate(116,64)"/>
<path d="M0 0 C6.6 0 13.2 0 20 0 C20.01981934 2.50384277 20.03963867 5.00768555 20.06005859 7.58740234 C20.12686474 15.84567483 20.20450539 24.10381959 20.28752708 32.3619442 C20.33754486 37.37049955 20.38387425 42.37903323 20.421875 47.38769531 C20.45865877 52.21828693 20.50499952 57.04869969 20.55806351 61.87913895 C20.57664431 63.72515359 20.59173854 65.57120662 20.60334396 67.41727829 C20.62014363 69.9963094 20.64916267 72.57492757 20.68115234 75.15380859 C20.68331253 75.92272934 20.68547272 76.69165009 20.68769836 77.48387146 C20.61409789 81.70081768 20.61409789 81.70081768 23 85 C27.16937798 85.23600253 30.94392005 84.98329211 35 84 C36.26305335 89.07476794 37.27036084 93.72796354 37 99 C28.96665817 102.62287965 20.73308475 104.59533911 11.90625 102.50390625 C7.02379754 100.60874378 3.33656625 97.5149778 0.87747192 92.88777161 C-0.3233027 88.93600657 -0.26291169 85.27808477 -0.22705078 81.1706543 C-0.22734283 80.29210281 -0.22763489 79.41355133 -0.22793579 78.50837708 C-0.22654595 75.61355607 -0.21100096 72.71899462 -0.1953125 69.82421875 C-0.19158114 67.81354411 -0.18873475 65.80286766 -0.18673706 63.79219055 C-0.17911028 58.50677447 -0.15946992 53.22146875 -0.1373291 47.93609619 C-0.11685015 42.54009494 -0.10773096 37.14407581 -0.09765625 31.74804688 C-0.07622317 21.16530836 -0.04104874 10.58268063 0 0 Z " fill="#4F46E0" transform="translate(469,30)"/>
<path d="M0 0 C-1.86282005 3.85854976 -4.18174709 7.30310839 -6.625 10.8125 C-7.10155029 11.50118164 -7.57810059 12.18986328 -8.0690918 12.89941406 C-9.7098284 15.26830049 -11.3547831 17.63422325 -13 20 C-14.26436911 21.82158252 -15.52869013 23.64319842 -16.79296875 25.46484375 C-24.92247198 37.16997083 -33.08566308 48.85138733 -41.26464844 60.52197266 C-43.0558685 63.07977845 -44.84463439 65.63928552 -46.6328125 68.19921875 C-51.99985807 75.88062714 -57.37210941 83.55778127 -62.8125 91.1875 C-63.22725586 91.76999512 -63.64201172 92.35249023 -64.06933594 92.95263672 C-66.87614196 96.87614196 -66.87614196 96.87614196 -68 98 C-74.60609298 98.95552416 -81.33691427 99.3172898 -88 99 C-88.66 98.34 -89.32 97.68 -90 97 C-89.6596875 96.5145874 -89.319375 96.0291748 -88.96875 95.52905273 C-79.28113555 81.70777699 -69.6329264 67.85943047 -60 54 C-53.39351007 44.4948731 -46.78429295 34.99165774 -40.1640625 25.49609375 C-39.55256348 24.61751709 -38.94106445 23.73894043 -38.31103516 22.83374023 C-37.12018445 21.13479537 -35.9195752 19.4426416 -34.70849609 17.75805664 C-32.27307323 14.36106285 -29.94690308 11.08166647 -28.125 7.3125 C-22.34395113 -3.58255364 -10.8127077 -0.99730212 0 0 Z " fill="#CA6CE4" transform="translate(956,33)"/>
<path d="M0 0 C3.4291808 0.8572952 5.34150243 1.62477534 8.2890625 3.37890625 C9.55931274 4.13119507 9.55931274 4.13119507 10.85522461 4.89868164 C11.76925049 5.4477417 12.68327637 5.99680176 13.625 6.5625 C14.57834229 7.13025146 15.53168457 7.69800293 16.51391602 8.28295898 C25.4793864 13.64258612 34.37515821 19.11643561 43.25439453 24.61743164 C44.29321777 25.26059326 45.33204102 25.90375488 46.40234375 26.56640625 C47.37316895 27.1704126 48.34399414 27.77441895 49.34423828 28.39672852 C51.58862738 29.75165619 53.85003116 30.98191799 56.17578125 32.1875 C59 34 59 34 60.078125 36.18359375 C60.13484375 36.92738281 60.1915625 37.67117187 60.25 38.4375 C60.33765625 39.17871094 60.4253125 39.91992188 60.515625 40.68359375 C59.54060406 45.06380144 55.72875372 47.51513718 52.13525391 49.90600586 C51.09288574 50.50292236 50.05051758 51.09983887 48.9765625 51.71484375 C48.40166077 52.04759308 47.82675903 52.38034241 47.23443604 52.72317505 C45.36857491 53.8016444 43.4968959 54.869546 41.625 55.9375 C39.01340485 57.4414817 36.40497253 58.95090041 33.796875 60.4609375 C33.1422226 60.8391011 32.48757019 61.21726471 31.81307983 61.60688782 C24.43868751 65.87951449 17.19034739 70.35479548 9.97119141 74.88452148 C9.09124512 75.42923096 8.21129883 75.97394043 7.3046875 76.53515625 C6.54140137 77.013479 5.77811523 77.49180176 4.99169922 77.98461914 C3 79 3 79 0 79 C-1.60375017 60.64076155 -1.60375017 60.64076155 1.55859375 55.43359375 C4.26166561 53.56439848 6.992596 52.3369982 10 51 C12.52276855 49.57715643 15.00924668 48.09976539 17.4987793 46.61962891 C21.30424551 44.36330618 25.15133226 42.18154388 29 40 C26.4951493 37.23373225 23.68951271 35.42337533 20.52734375 33.4609375 C19.46322266 32.79835937 18.39910156 32.13578125 17.30273438 31.453125 C16.19220703 30.76734375 15.08167969 30.0815625 13.9375 29.375 C12.82310547 28.68148437 11.70871094 27.98796875 10.56054688 27.2734375 C5.37337627 23.97285235 5.37337627 23.97285235 0 21 C0 14.07 0 7.14 0 0 Z " fill="#CA6DE3" transform="translate(967,56)"/>
<path d="M0 0 C1.12546803 6.90768029 2.13791711 14.21759751 0 21 C-3.99208409 25.92663649 -10.04655035 28.3771047 -15.71240234 30.92724609 C-18.89298216 32.41875812 -21.69982777 34.24377481 -24.625 36.1875 C-26.08220743 37.1267491 -27.54033163 38.06457998 -29 39 C-24.41460539 42.26296765 -19.89771345 45.14746716 -14.74609375 47.4375 C-3.80038539 52.56162351 -3.80038539 52.56162351 0 57 C2.37943769 64.08071506 1.25450477 71.7701925 0 79 C-3.76068244 78.32236919 -6.58365099 76.64422647 -9.85546875 74.7109375 C-10.42640762 74.37530792 -10.9973465 74.03967834 -11.58558655 73.69387817 C-13.45587514 72.59255583 -15.32173927 71.4839729 -17.1875 70.375 C-18.48060179 69.61100225 -19.77389818 68.84733378 -21.06738281 68.08398438 C-25.04979101 65.73081881 -29.02551378 63.36651434 -33 61 C-33.63238586 60.62379517 -34.26477173 60.24759033 -34.9163208 59.85998535 C-39.03078347 57.41204395 -43.14170702 54.95828289 -47.25 52.5 C-48.32016357 51.85981934 -49.39032715 51.21963867 -50.49291992 50.56005859 C-51.95822144 49.67954834 -51.95822144 49.67954834 -53.453125 48.78125 C-54.31067383 48.26626953 -55.16822266 47.75128906 -56.05175781 47.22070312 C-58 46 -58 46 -59 45 C-59.70248619 41.19797602 -59.81312772 37.78885732 -59 34 C-56.42327174 31.05093918 -53.23234519 29.58482432 -49.75 27.875 C-47.74288459 26.7938977 -45.73777514 25.7090654 -43.734375 24.62109375 C-42.65349609 24.04858887 -41.57261719 23.47608398 -40.45898438 22.88623047 C-34.80986054 19.80568765 -29.33948522 16.43870047 -23.8560791 13.07452393 C-22.0306295 11.95626346 -20.20113059 10.84496237 -18.37011719 9.73583984 C-12.00582312 5.89009966 -12.00582312 5.89009966 -5.81640625 1.77172852 C-3 0 -3 0 0 0 Z " fill="#CA6DE4" transform="translate(855,56)"/>
<path d="M0 0 C5.94 0 11.88 0 18 0 C18.01981934 2.49860596 18.03963867 4.99721191 18.06005859 7.5715332 C18.12690174 15.81782438 18.20454206 24.06398827 18.28752708 32.31013203 C18.33751837 37.31081163 18.38384815 42.31146982 18.421875 47.31225586 C18.45869203 52.13636774 18.50504217 56.96030165 18.55806351 61.7842617 C18.57662653 63.62665886 18.59172741 65.46909419 18.60334396 67.31154823 C18.62017383 69.88797947 18.64920067 72.4640014 18.68115234 75.0402832 C18.68331253 75.80560867 18.68547272 76.57093414 18.68769836 77.35945129 C18.74724737 81.10676798 18.86830408 82.80245612 21 86 C19.35 85.34 17.7 84.68 16 84 C15.67 56.94 15.34 29.88 15 2 C10.05 1.67 5.1 1.34 0 1 C0 0.67 0 0.34 0 0 Z " fill="#4D46BF" transform="translate(471,30)"/>
<path d="M0 0 C0 0.66 0 1.32 0 2 C-0.8353125 2.02126953 -0.8353125 2.02126953 -1.6875 2.04296875 C-7.69425934 2.41839121 -12.56445152 3.76390873 -17 8 C-21.02112058 13.76898153 -21.59994565 18.14856806 -21.609375 25.08984375 C-21.62591125 26.03436905 -21.64244751 26.97889435 -21.65948486 27.95204163 C-21.70778711 30.94726174 -21.72929638 33.94197479 -21.75 36.9375 C-21.77817453 38.97723881 -21.80810402 41.01695418 -21.83984375 43.05664062 C-21.91354141 48.03771865 -21.9632246 53.0185181 -22 58 C-22.33 58 -22.66 58 -23 58 C-23.0253261 51.64624888 -23.04285678 45.29251074 -23.05493164 38.9387207 C-23.05996472 36.77660638 -23.06679169 34.61449547 -23.07543945 32.45239258 C-23.08754979 29.34715941 -23.09323852 26.2419712 -23.09765625 23.13671875 C-23.10281754 22.16788254 -23.10797882 21.19904633 -23.11329651 20.20085144 C-23.11337204 19.3001442 -23.11344757 18.39943695 -23.11352539 17.47143555 C-23.115746 16.67867722 -23.11796661 15.88591888 -23.12025452 15.06913757 C-23 13 -23 13 -22 10 C-21.34 9.67 -20.68 9.34 -20 9 C-19.34786708 6.97536745 -19.34786708 6.97536745 -19 5 C-18.360625 4.87625 -17.72125 4.7525 -17.0625 4.625 C-16.381875 4.41875 -15.70125 4.2125 -15 4 C-14.67 3.34 -14.34 2.68 -14 2 C-9.18029285 -0.11596899 -5.15795631 -0.17786056 0 0 Z " fill="#4F47BF" transform="translate(638,73)"/>
<path d="M0 0 C0 3.71928506 -1.34770822 5.69541645 -3 9 C-3.69907414 11.73572585 -3.69907414 11.73572585 -4 14 C-4.66 14 -5.32 14 -6 14 C-6 21.59 -6 29.18 -6 37 C-5.34 37 -4.68 37 -4 37 C-4 38.98 -4 40.96 -4 43 C-3.34 43 -2.68 43 -2 43 C-2 44.32 -2 45.64 -2 47 C-1.401875 47.226875 -0.80375 47.45375 -0.1875 47.6875 C2.60188284 49.3611297 3.6168842 51.08817726 5 54 C4.67 54.66 4.34 55.32 4 56 C-6.12721729 45.55986307 -8.4969644 35.81116115 -8.28515625 21.57421875 C-7.94930343 13.35679462 -4.91545592 6.4954239 0 0 Z " fill="#5751BC" transform="translate(223,69)"/>
<path d="M0 0 C5.42751476 6.66104085 6.08958629 13.69932505 6.2109375 22.078125 C6.23896606 23.41667973 6.26763014 24.75522129 6.296875 26.09375 C6.33834294 28.18294453 6.37527326 30.27188136 6.40136719 32.36132812 C6.42886572 34.39242647 6.47467663 36.42244107 6.5234375 38.453125 C6.54325684 39.66129883 6.56307617 40.86947266 6.58349609 42.11425781 C6.78966553 43.5427002 6.78966553 43.5427002 7 45 C7.99 45.66 8.98 46.32 10 47 C10.22137393 49.62697064 10.28162025 52.00893964 10.1875 54.625 C10.17396484 55.33140625 10.16042969 56.0378125 10.14648438 56.765625 C10.1111104 58.51074128 10.05730221 60.25546608 10 62 C9.67 62 9.34 62 9 62 C9 57.71 9 53.42 9 49 C7.35 48.67 5.7 48.34 4 48 C4.33 37.77 4.66 27.54 5 17 C4.34 17 3.68 17 3 17 C2.92652344 16.07767578 2.92652344 16.07767578 2.8515625 15.13671875 C2.77679688 14.32847656 2.70203125 13.52023438 2.625 12.6875 C2.55539062 11.88699219 2.48578125 11.08648437 2.4140625 10.26171875 C2.10435574 7.72775559 2.10435574 7.72775559 0 5 C-0.125 2.3125 -0.125 2.3125 0 0 Z " fill="#4E4ABE" transform="translate(448,69)"/>
<path d="M0 0 C0.99 0.33 1.98 0.66 3 1 C2.63237549 1.50861572 2.26475098 2.01723145 1.88598633 2.54125977 C0.19462528 4.88152948 -1.49643913 7.22201338 -3.1875 9.5625 C-3.76564453 10.36236328 -4.34378906 11.16222656 -4.93945312 11.98632812 C-8.30701873 16.64764774 -11.66233948 21.31721829 -15 26 C-15.33 24.68 -15.66 23.36 -16 22 C-15.34 22 -14.68 22 -14 22 C-14 20.68 -14 19.36 -14 18 C-13.06553465 15.96855359 -12.06775224 13.96466413 -11 12 C-10.67 11.34 -10.34 10.68 -10 10 C-9.01 10 -8.02 10 -7 10 C-6.67 9.34 -6.34 8.68 -6 8 C-5.34 8 -4.68 8 -4 8 C-3.67 6.35 -3.34 4.7 -3 3 C-2.01 3 -1.02 3 0 3 C0 2.01 0 1.02 0 0 Z " fill="#C671DC" transform="translate(927,71)"/>
<path d="M0 0 C0.33 0 0.66 0 1 0 C1.04633418 9.57930265 1.08187471 19.15856675 1.10362434 28.737957 C1.1140629 33.18602201 1.12822345 37.63401036 1.15087891 42.08203125 C1.17260467 46.37436934 1.18456808 50.66663369 1.18975449 54.95902252 C1.19345072 56.59688732 1.20066849 58.23474807 1.21146011 59.87258148 C1.22597155 62.16611972 1.2279781 64.45935295 1.22705078 66.75292969 C1.231492 68.05864929 1.23593323 69.3643689 1.24050903 70.70965576 C1.01684817 73.7695044 0.62626858 75.4478513 -1 78 C-1.38218767 76.34385343 -1.71395102 74.67542976 -2 73 C-1.505 72.505 -1.505 72.505 -1 72 C-0.87588418 69.76142644 -0.82196977 67.51894516 -0.79467773 65.27709961 C-0.78477814 64.5746965 -0.77487854 63.8722934 -0.76467896 63.14860535 C-0.73297878 60.81655296 -0.70827312 58.48448016 -0.68359375 56.15234375 C-0.66303156 54.53950965 -0.64203529 52.92668104 -0.62062073 51.31385803 C-0.56532408 47.06090725 -0.51594844 42.80790723 -0.46777344 38.55487061 C-0.41761369 34.21817625 -0.36189885 29.88155373 -0.30664062 25.54492188 C-0.19896625 17.03000859 -0.09754205 8.51503535 0 0 Z " fill="#5250C3" transform="translate(751,59)"/>
<path d="M0 0 C0.598125 0.495 1.19625 0.99 1.8125 1.5 C7.53458003 4.19274354 13.67964075 3.62924997 19.6875 2 C20.450625 1.67 21.21375 1.34 22 1 C22 1.66 22 2.32 22 3 C22.99 3 23.98 3 25 3 C25 4.65 25 6.3 25 8 C26.65 8 28.3 8 30 8 C27.6875 10.5 27.6875 10.5 25 13 C24.01 13 23.02 13 22 13 C21.20046862 9.71303767 20.90341064 8.28976808 22 5 C21.44014404 5.00523682 20.88028809 5.01047363 20.3034668 5.01586914 C17.76482263 5.03666691 15.22619641 5.04966904 12.6875 5.0625 C11.36588867 5.07506836 11.36588867 5.07506836 10.01757812 5.08789062 C9.17001953 5.09111328 8.32246094 5.09433594 7.44921875 5.09765625 C6.66893311 5.10289307 5.88864746 5.10812988 5.0847168 5.11352539 C3 5 3 5 0 4 C0 2.68 0 1.36 0 0 Z " fill="#4E45DF" transform="translate(406,114)"/>
<path d="M0 0 C-0.66 1.32 -1.32 2.64 -2 4 C-2.495 3.01 -2.495 3.01 -3 2 C-8.94 2 -14.88 2 -21 2 C-22.05182496 4.78318129 -22.05182496 4.78318129 -22.1875 6.9375 C-23 9 -23 9 -25.9375 10.9375 C-29.33050124 13.22258247 -29.64451674 14.32083116 -31 18 C-33.125 19.3125 -33.125 19.3125 -35 20 C-28.20369212 1.38245447 -19.33103722 -2.49407983 0 0 Z " fill="#C170D5" transform="translate(956,33)"/>
<path d="M0 0 C3.76698413 0.94174603 5.99569791 2.04997107 9.25 4.0625 C10.14203125 4.61035156 11.0340625 5.15820312 11.953125 5.72265625 C12.96632813 6.35494141 12.96632813 6.35494141 14 7 C12.234375 8.1171875 12.234375 8.1171875 10 9 C7.35435928 8.06434658 5.37036624 6.54985485 3 5 C2.95101562 5.78246094 2.90203125 6.56492187 2.8515625 7.37109375 C2.77679687 8.38300781 2.70203125 9.39492187 2.625 10.4375 C2.55539062 11.44683594 2.48578125 12.45617187 2.4140625 13.49609375 C2.27742187 14.32238281 2.14078125 15.14867188 2 16 C1.34 16.33 0.68 16.66 0 17 C0 11.39 0 5.78 0 0 Z " fill="#BE77D5" transform="translate(967,56)"/>
<path d="M0 0 C0.33 0.66 0.66 1.32 1 2 C0.67 2.99 0.34 3.98 0 5 C1.32 4.34 2.64 3.68 4 3 C3.375 5.3125 3.375 5.3125 2 8 C0.03533587 9.06775224 -1.96855359 10.06553465 -4 11 C-6.37719693 12.87501931 -6.37719693 12.87501931 -8 15 C-8 15.99 -8 16.98 -8 18 C-8.99 18.33 -9.98 18.66 -11 19 C-12.37195574 20.29355827 -13.71182656 21.62298702 -15 23 C-13.33540072 17.76541108 -10.11229841 13.65387241 -6.9375 9.25 C-6.38255859 8.47011719 -5.82761719 7.69023438 -5.25585938 6.88671875 C-1.18614647 1.18614647 -1.18614647 1.18614647 0 0 Z " fill="#C571DA" transform="translate(920,53)"/>
<path d="M0 0 C5.17184427 4.72727313 6.9887048 10.666034 7.32421875 17.5546875 C7.35638417 19.18206184 7.37321543 20.80980879 7.375 22.4375 C7.37653076 23.23099854 7.37806152 24.02449707 7.37963867 24.84204102 C7.30540458 28.71341123 7.1901416 30.71478759 5 34 C4.98018066 33.42556152 4.96036133 32.85112305 4.93994141 32.25927734 C4.84407976 29.63076167 4.73465126 27.00297509 4.625 24.375 C4.5940625 23.47136719 4.563125 22.56773438 4.53125 21.63671875 C4.31897029 16.78966541 4.02186702 12.49465401 2 8 C1.34 7.67 0.68 7.34 0 7 C0 4.69 0 2.38 0 0 Z " fill="#4F47C5" transform="translate(578,73)"/>
<path d="M0 0 C3.79303725 1.00193437 6.71536341 1.81024227 10 4 C9.67 3.67 9.34 3.34 9 3 C9 2.01 9 1.02 9 0 C10.65 0.33 12.3 0.66 14 1 C14 1.66 14 2.32 14 3 C14.66 3.33 15.32 3.66 16 4 C15.67 4.99 15.34 5.98 15 7 C15.66 7.33 16.32 7.66 17 8 C17 8.66 17 9.32 17 10 C17.969375 10.28875 18.93875 10.5775 19.9375 10.875 C23 12 23 12 24 14 C20.64446115 13.34544853 18.15597637 12.06891834 15.234375 10.3125 C13.90019531 9.51199219 13.90019531 9.51199219 12.5390625 8.6953125 C11.61867188 8.13585937 10.69828125 7.57640625 9.75 7 C8.34621094 6.16082031 8.34621094 6.16082031 6.9140625 5.3046875 C1.80693703 2.22254473 1.80693703 2.22254473 0 1 C0 0.67 0 0.34 0 0 Z " fill="#BF70DC" transform="translate(831,121)"/>
<path d="M0 0 C0.78375 0.04125 1.5675 0.0825 2.375 0.125 C-4.56519233 6.4145493 -12.74605452 8.2885049 -21.9375 8.1875 C-23.00613281 8.17847656 -24.07476562 8.16945312 -25.17578125 8.16015625 C-25.98402344 8.14855469 -26.79226562 8.13695312 -27.625 8.125 C-27.625 7.465 -27.625 6.805 -27.625 6.125 C-26.80515625 6.07601562 -25.9853125 6.02703125 -25.140625 5.9765625 C-24.06296875 5.90179688 -22.9853125 5.82703125 -21.875 5.75 C-20.80765625 5.68039063 -19.7403125 5.61078125 -18.640625 5.5390625 C-15.77377998 5.14542834 -14.12618452 4.47670397 -11.625 3.125 C-10.42875 2.96 -9.2325 2.795 -8 2.625 C-4.26923084 2.07229346 -3.57378979 0.17018047 0 0 Z " fill="#4B44CB" transform="translate(191.625,124.875)"/>
<path d="M0 0 C2.4375 0.375 2.4375 0.375 5 1 C5.33 1.66 5.66 2.32 6 3 C7.65 3 9.3 3 11 3 C11 4.65 11 6.3 11 8 C11.66 8.33 12.32 8.66 13 9 C12.67 16.92 12.34 24.84 12 33 C11.01 33 10.02 33 9 33 C9.33 32.34 9.66 31.68 10 31 C10.29025692 27.92367699 10.27787626 24.83843757 10.3125 21.75 C10.34150391 20.90308594 10.37050781 20.05617188 10.40039062 19.18359375 C10.45689568 13.59393997 9.75451173 10.41272666 6 6 C4.37938594 4.36883942 4.37938594 4.36883942 2.75 3.1875 C1.8425 2.465625 0.935 1.74375 0 1 C0 0.67 0 0.34 0 0 Z " fill="#5349CB" transform="translate(721,75)"/>
<path d="M0 0 C0.08226668 3.04386724 -0.02391783 5.07175348 -1 8 C-1.99 8.66 -2.98 9.32 -4 10 C-1.36 10.33 1.28 10.66 4 11 C3.67 11.66 3.34 12.32 3 13 C-1.29 13 -5.58 13 -10 13 C-8.97611024 8.90444097 -8.75212261 8.64627174 -6 6 C-5.484375 5.13375 -4.96875 4.2675 -4.4375 3.375 C-2.39473684 0 -2.39473684 0 0 0 Z " fill="#CD6BE8" transform="translate(878,119)"/>
<path d="M0 0 C0 0.66 0 1.32 0 2 C-0.98871094 1.83757813 -1.97742188 1.67515625 -2.99609375 1.5078125 C-7.01714049 0.93525591 -11.00617675 0.85184306 -15.0625 0.875 C-16.0844043 0.86919922 -16.0844043 0.86919922 -17.12695312 0.86328125 C-21.18843354 0.87108429 -25.01597503 1.21686873 -29 2 C-29.33 2.99 -29.66 3.98 -30 5 C-31.98 5 -33.96 5 -36 5 C-27.2369855 -4.6825901 -11.42619888 -2.6224063 0 0 Z " fill="#4C47C3" transform="translate(356,59)"/>
<path d="M0 0 C0.93620179 2.52774482 1.16195271 3.62325407 0.078125 6.14453125 C-1.49513822 10.31139869 -1.28992166 14.27282967 -1.25 18.6875 C-1.25773437 19.55439453 -1.26546875 20.42128906 -1.2734375 21.31445312 C-1.27085937 22.14267578 -1.26828125 22.97089844 -1.265625 23.82421875 C-1.26336914 24.57791748 -1.26111328 25.33161621 -1.25878906 26.1081543 C-1.16114315 28.24202254 -1.16114315 28.24202254 1 30 C1.125 33.125 1.125 33.125 1 36 C-4.01332625 30.53091682 -4.43555538 23.12404326 -4.3359375 16.03125 C-3.71896168 10.46411934 -1.87189875 5.25635855 0 0 Z " fill="#5750BA" transform="translate(307,77)"/>
<path d="M0 0 C3.61938095 2.64116988 5.98706523 4.97413046 8 9 C8 9.66 8 10.32 8 11 C5.03 11.66 2.06 12.32 -1 13 C-1 12.34 -1 11.68 -1 11 C-0.34 10.67 0.32 10.34 1 10 C0.4740625 8.9171875 0.4740625 8.9171875 -0.0625 7.8125 C-1.10409017 4.6877295 -0.89096572 3.11838004 0 0 Z " fill="#4B44CE" transform="translate(117,66)"/>
<path d="M0 0 C0.99 0.33 1.98 0.66 3 1 C2.33333333 3 1.66666667 5 1 7 C1 7.66 1 8.32 1 9 C-5.75 11.125 -5.75 11.125 -8 10 C-8.33 10.66 -8.66 11.32 -9 12 C-9 9 -9 9 -7.03125 6.73828125 C-5.77828125 5.53751953 -5.77828125 5.53751953 -4.5 4.3125 C-3.6646875 3.50425781 -2.829375 2.69601563 -1.96875 1.86328125 C-1.3190625 1.24839844 -0.669375 0.63351563 0 0 Z " fill="#4E47CE" transform="translate(686,136)"/>
<path d="M0 0 C0 0.66 0 1.32 0 2 C-0.99 2 -1.98 2 -3 2 C-3 2.66 -3 3.32 -3 4 C-3.99 4 -4.98 4 -6 4 C-6 5.32 -6 6.64 -6 8 C-8.5625 10.3125 -8.5625 10.3125 -12 12 C-15.875 11.75 -15.875 11.75 -19 11 C-15.44608026 8.03073619 -11.81482005 5.57681464 -7.8125 3.25 C-6.76707031 2.63640625 -5.72164062 2.0228125 -4.64453125 1.390625 C-2 0 -2 0 0 0 Z " fill="#C071D9" transform="translate(996,97)"/>
<path d="M0 0 C1.7015625 0.2475 1.7015625 0.2475 3.4375 0.5 C8.21248291 1.03309219 12.95114235 1.11267285 17.75 1.125 C18.48275146 1.12951172 19.21550293 1.13402344 19.97045898 1.13867188 C23.77190137 1.12825815 27.30520731 0.91642496 31 0 C31 0.66 31 1.32 31 2 C21.7004501 4.86139997 11.28180783 5.37141899 2 2 C1.34 1.34 0.68 0.68 0 0 Z " fill="#4E47C0" transform="translate(530,129)"/>
<path d="M0 0 C0.66 0 1.32 0 2 0 C0.59928507 5.29158974 -2.85487245 7.77478044 -7 11 C-7 10.34 -7 9.68 -7 9 C-8.98 9 -10.96 9 -13 9 C-9.88326378 5.61611496 -7.45076606 3.32320072 -3 2 C-2.34 2 -1.68 2 -1 2 C-0.67 1.34 -0.34 0.68 0 0 Z " fill="#4D45D1" transform="translate(201,114)"/>
<path d="M0 0 C0.66 0.33 1.32 0.66 2 1 C1.195625 1.226875 0.39125 1.45375 -0.4375 1.6875 C-1.283125 2.120625 -2.12875 2.55375 -3 3 C-3.39171753 4.65391846 -3.72057545 6.32345271 -4 8 C-5.31328657 9.35308313 -6.64499081 10.68870078 -8 12 C-8 12.99 -8 13.98 -8 15 C-8.66 14.67 -9.32 14.34 -10 14 C-10.99 14 -11.98 14 -13 14 C-13 10.445249 -11.92661744 9.18437066 -9.63671875 6.56640625 C-6.81182033 3.86286384 -3.58032096 1.58861924 0 0 Z " fill="#5048CD" transform="translate(151,61)"/>
<path d="M0 0 C-4.16904142 4.16904142 -10.97722353 4.14890923 -16.625 4.3125 C-21.46000269 4.23769686 -24.75367687 3.26470567 -29 1 C-28.34 0.67 -27.68 0.34 -27 0 C-26.34 0.33 -25.68 0.66 -25 1 C-22.12089412 1.23274209 -19.25853505 1.41972757 -16.375 1.5625 C-15.57320313 1.60568359 -14.77140625 1.64886719 -13.9453125 1.69335938 C-11.9637489 1.79951457 -9.98189729 1.90026855 -8 2 C-8 1.34 -8 0.68 -8 0 C-4.71023192 -1.09658936 -3.28696233 -0.79953138 0 0 Z " fill="#4D46B8" transform="translate(505,129)"/>
<path d="M0 0 C0.33 0.99 0.66 1.98 1 3 C-4.39384664 7.67368728 -8.90086082 10.04687483 -16 11 C-12.92486954 7.62631319 -9.71481144 5.49098038 -5.75 3.25 C-4.67234375 2.63640625 -3.5946875 2.0228125 -2.484375 1.390625 C-1.66453125 0.93171875 -0.8446875 0.4728125 0 0 Z " fill="#BD72D3" transform="translate(846,60)"/>
<path d="M0 0 C0.66 0.66 1.32 1.32 2 2 C1.01 2.33 0.02 2.66 -1 3 C-0.67 2.01 -0.34 1.02 0 0 Z M-2 3 C-1.34 3.66 -0.68 4.32 0 5 C1.31747324 5.69748583 2.64914193 6.36959957 4 7 C-2.40871041 11.37504865 -7.19198969 13.7481287 -15 14 C-15 13.67 -15 13.34 -15 13 C-13.35 13 -11.7 13 -10 13 C-10 12.34 -10 11.68 -10 11 C-8.865625 10.608125 -7.73125 10.21625 -6.5625 9.8125 C-2.79660949 8.41389118 -2.79660949 8.41389118 -2.0625 5.3125 C-2.041875 4.549375 -2.02125 3.78625 -2 3 Z " fill="#4D47CE" transform="translate(737,146)"/>
<path d="M0 0 C0.33 0 0.66 0 1 0 C1 1.98 1 3.96 1 6 C1.66 6.33 2.32 6.66 3 7 C4.125 9.0625 4.125 9.0625 5 11 C4.01 11.33 3.02 11.66 2 12 C2.66 14.97 3.32 17.94 4 21 C-0.1525577 16.8474423 -0.89275092 13.10923182 -1.1875 7.3125 C-1.03848488 4.67989946 -0.79832842 2.49477633 0 0 Z " fill="#5049C8" transform="translate(386,102)"/>
<path d="M0 0 C0.70576172 0.52400391 0.70576172 0.52400391 1.42578125 1.05859375 C2.35970703 1.74115234 2.35970703 1.74115234 3.3125 2.4375 C4.23482422 3.11619141 4.23482422 3.11619141 5.17578125 3.80859375 C9.46202722 6.6079621 14.06530766 6.48163949 19 6 C22.78457727 4.50045052 25.84075404 2.55169866 29 0 C28.62834479 2.35877171 28.3905936 3.65328129 26.57421875 5.265625 C20.51966806 8.42452101 14.747157 8.94763441 8 8 C4.57438462 6.70880651 2.55421478 4.90689692 0.625 1.75 C0.41875 1.1725 0.2125 0.595 0 0 Z " fill="#4E47BD" transform="translate(155,109)"/>
<path d="M0 0 C0.33 0 0.66 0 1 0 C1 1.65 1 3.3 1 5 C0.34 5 -0.32 5 -1 5 C-0.67 7.31 -0.34 9.62 0 12 C-0.99 12.495 -0.99 12.495 -2 13 C-2.46806645 15.33744294 -2.82669794 17.69739079 -3.125 20.0625 C-3.29257813 21.35285156 -3.46015625 22.64320312 -3.6328125 23.97265625 C-3.75398437 24.97167969 -3.87515625 25.97070312 -4 27 C-4.33 27 -4.66 27 -5 27 C-5.53144072 16.88786402 -4.53803509 9.07607018 0 0 Z " fill="#534CC2" transform="translate(136,75)"/>
<path d="M0 0 C1 3 1 3 0.4375 6.5 C-0.35955264 11.84025271 0.84050501 16.78706382 2 22 C1.34 22 0.68 22 0 22 C-0.18175781 20.98679687 -0.18175781 20.98679687 -0.3671875 19.953125 C-0.53476563 19.06109375 -0.70234375 18.1690625 -0.875 17.25 C-1.03742188 16.36828125 -1.19984375 15.4865625 -1.3671875 14.578125 C-1.89721882 12.00834917 -1.89721882 12.00834917 -3.0703125 9.859375 C-4 8 -4 8 -4 5 C-3.34 5 -2.68 5 -2 5 C-1.34 3.35 -0.68 1.7 0 0 Z " fill="#4E4AC6" transform="translate(152,85)"/>
<path d="M0 0 C-3 2 -3 2 -6.125 3.6875 C-9.31145861 5.78450124 -9.31145861 5.78450124 -9.9375 9.5 C-9.98809155 12.33312677 -9.94837567 14.36562315 -9 17 C-9.66 17 -10.32 17 -11 17 C-12.26237731 14.47524538 -12.09856404 12.68799534 -12.0625 9.875 C-12.05347656 8.96492188 -12.04445313 8.05484375 -12.03515625 7.1171875 C-12.02355469 6.41851562 -12.01195312 5.71984375 -12 5 C-12.66 4.67 -13.32 4.34 -14 4 C-4.58997722 -0.59225513 -4.58997722 -0.59225513 0 0 Z " fill="#5048C5" transform="translate(415,97)"/>
<path d="M0 0 C0.33 0 0.66 0 1 0 C1.02578125 0.7734375 1.0515625 1.546875 1.078125 2.34375 C1.53281294 10.69347405 2.78937103 16.9208358 8.75 23 C9.86375 23.99 9.86375 23.99 11 25 C7.07328769 23.6910959 4.56073969 22.2923796 2 19 C1.25 15.75 1.25 15.75 1 13 C0.34 13 -0.32 13 -1 13 C-0.67 8.71 -0.34 4.42 0 0 Z " fill="#4F48BE" transform="translate(528,90)"/>
<path d="M0 0 C0.66 0 1.32 0 2 0 C2 1.98 2 3.96 2 6 C2.66 6 3.32 6 4 6 C4 7.32 4 8.64 4 10 C4.598125 10.226875 5.19625 10.45375 5.8125 10.6875 C8.60188284 12.3611297 9.6168842 14.08817726 11 17 C10.67 17.66 10.34 18.32 10 19 C0.22488467 8.44823168 0.22488467 8.44823168 -0.1875 2.125 C-0.125625 1.42375 -0.06375 0.7225 0 0 Z " fill="#534BC5" transform="translate(217,106)"/>
<path d="M0 0 C0.66 0.33 1.32 0.66 2 1 C2 1.99 2 2.98 2 4 C2.99 4.33 3.98 4.66 5 5 C5.33 5.66 5.66 6.32 6 7 C8.01669827 8.13350534 8.01669827 8.13350534 10 9 C9.67 9.99 9.34 10.98 9 12 C4.38 9.03 -0.24 6.06 -5 3 C-3.68 2.34 -2.36 1.68 -1 1 C-0.67 0.67 -0.34 0.34 0 0 Z " fill="#BE74D2" transform="translate(987,83)"/>
<path d="M0 0 C0.66 0 1.32 0 2 0 C2 0.66 2 1.32 2 2 C1.34 2 0.68 2 0 2 C-0.66 3.98 -1.32 5.96 -2 8 C-2.66 8 -3.32 8 -4 8 C-4.33 9.32 -4.66 10.64 -5 12 C-5.66 12 -6.32 12 -7 12 C-7.433125 13.1446875 -7.433125 13.1446875 -7.875 14.3125 C-9 17 -9 17 -11 20 C-11.66 19.67 -12.32 19.34 -13 19 C-10.88598588 15.82586867 -8.75702593 12.66205534 -6.625 9.5 C-6.02171875 8.59378906 -5.4184375 7.68757813 -4.796875 6.75390625 C-4.21679688 5.89667969 -3.63671875 5.03945312 -3.0390625 4.15625 C-2.23782959 2.96225586 -2.23782959 2.96225586 -1.42041016 1.74414062 C-0.9516748 1.16857422 -0.48293945 0.59300781 0 0 Z " fill="#BB78CE" transform="translate(903,77)"/>
<path d="M0 0 C0 0.66 0 1.32 0 2 C-1.65 2.33 -3.3 2.66 -5 3 C-4.79375 3.78375 -4.5875 4.5675 -4.375 5.375 C-4.25125 6.24125 -4.1275 7.1075 -4 8 C-4.66 8.66 -5.32 9.32 -6 10 C-6 9.34 -6 8.68 -6 8 C-8.31 8.33 -10.62 8.66 -13 9 C-10.03160376 4.72550941 -5.61996393 0 0 0 Z " fill="#4C46CF" transform="translate(532,60)"/>
<path d="M0 0 C2.97 0.495 2.97 0.495 6 1 C6 1.99 6 2.98 6 4 C6.721875 4.103125 7.44375 4.20625 8.1875 4.3125 C11.27793421 5.06793947 13.41743841 6.15531315 16 8 C16 8.66 16 9.32 16 10 C9.43759608 8.12502745 4.63385223 4.9903024 0 0 Z " fill="#4B43C5" transform="translate(313,121)"/>
<path d="M0 0 C2.48046875 1.01953125 2.48046875 1.01953125 5 3 C5.38060051 5.78599571 5.47962905 7.93372751 5.3125 10.6875 C5.28994141 11.38939453 5.26738281 12.09128906 5.24414062 12.81445312 C5.18531647 14.5438833 5.09563389 16.27221438 5 18 C1.94932165 14.94932165 2.56066225 11.60373178 2.34375 7.43359375 C2.2303125 6.63050781 2.116875 5.82742187 2 5 C1.34 4.67 0.68 4.34 0 4 C0 2.68 0 1.36 0 0 Z " fill="#544AC9" transform="translate(291,113)"/>
<path d="M0 0 C2.56506424 -0.16276553 5.11975422 -0.28113984 7.6875 -0.375 C8.7693457 -0.45041016 8.7693457 -0.45041016 9.87304688 -0.52734375 C15.19207413 -0.67307052 15.19207413 -0.67307052 17.63525391 1.36230469 C19.01953125 3.0234375 19.01953125 3.0234375 21 6 C20.67 6.66 20.34 7.32 20 8 C18.53515625 6.73046875 17.0703125 5.4609375 15.60546875 4.19140625 C12.32398611 1.75624273 9.23775686 1.89132051 5.3125 1.9375 C4.31863281 1.94652344 3.32476562 1.95554687 2.30078125 1.96484375 C1.54152344 1.97644531 0.78226562 1.98804687 0 2 C0 1.34 0 0.68 0 0 Z " fill="#4C45C4" transform="translate(85,73)"/>
<path d="M0 0 C5.75 0.875 5.75 0.875 8 2 C7.49607061 6.40938215 6.0379639 8.78843816 3 12 C0.75 13.3125 0.75 13.3125 -1 14 C0.02911077 11.78345373 1.08234225 9.89130823 2.5625 7.9375 C4.18688728 5.95818504 4.18688728 5.95818504 5 3 C2.525 2.01 2.525 2.01 0 1 C0 0.67 0 0.34 0 0 Z " fill="#4841BE" transform="translate(117,111)"/>
<path d="M0 0 C0.66 0 1.32 0 2 0 C1.96519531 1.15757813 1.93039063 2.31515625 1.89453125 3.5078125 C1.86637793 5.0468604 1.83907944 6.58592411 1.8125 8.125 C1.78736328 8.88554688 1.76222656 9.64609375 1.73632812 10.4296875 C1.67117064 15.46853296 2.50805455 18.50767095 5 23 C4.67 23.66 4.34 24.32 4 25 C2.015625 23.671875 2.015625 23.671875 0 21 C-0.51556954 17.40931746 -0.37526282 13.86816829 -0.25 10.25 C-0.23195313 9.26644531 -0.21390625 8.28289062 -0.1953125 7.26953125 C-0.14824126 4.84536217 -0.08250742 2.42317941 0 0 Z " fill="#4944BE" transform="translate(73,85)"/>
<path d="M0 0 C0.33 1.32 0.66 2.64 1 4 C1.66 4 2.32 4 3 4 C3.433125 4.763125 3.86625 5.52625 4.3125 6.3125 C6.22444904 9.35745588 7.95521294 10.20435635 11 12 C12.3125 14.1875 12.3125 14.1875 13 16 C8.83703539 14.64630871 6.61246848 12.91356111 3.75 9.625 C3.06421875 8.85414062 2.3784375 8.08328125 1.671875 7.2890625 C0.06481606 5.08874348 -0.69221268 3.68722007 -1 1 C-0.67 0.67 -0.34 0.34 0 0 Z " fill="#4D47BC" transform="translate(681,113)"/>
<path d="M0 0 C1.98 0.99 1.98 0.99 4 2 C4 2.66 4 3.32 4 4 C4.598125 4.103125 5.19625 4.20625 5.8125 4.3125 C8.31258286 5.09824033 9.37535082 5.96918853 11 8 C11 8.66 11 9.32 11 10 C8.13144287 9.91563067 6.44317685 9.41307819 4.33203125 7.4453125 C0 2.48559976 0 2.48559976 0 0 Z " fill="#4C45CA" transform="translate(514,115)"/>
<path d="M0 0 C1.15628906 0.63228516 1.15628906 0.63228516 2.3359375 1.27734375 C3.33882812 1.82519531 4.34171875 2.37304688 5.375 2.9375 C6.37273438 3.48277344 7.37046875 4.02804688 8.3984375 4.58984375 C9.92070346 5.4149759 11.45128783 6.22564391 13 7 C12.67 8.65 12.34 10.3 12 12 C11.34 12 10.68 12 10 12 C9.79375 11.05125 9.5875 10.1025 9.375 9.125 C8.92125 8.09375 8.4675 7.0625 8 6 C5.02496878 4.84164327 5.02496878 4.84164327 2 4 C0.8125 1.9453125 0.8125 1.9453125 0 0 Z " fill="#BE74D3" transform="translate(842,106)"/>
<path d="M0 0 C3.96 1.98 3.96 1.98 8 4 C8 5.32 8 6.64 8 8 C5.625 8.625 5.625 8.625 3 9 C2.34 8.34 1.68 7.68 1 7 C1.375 4.875 1.375 4.875 2 3 C1.34 2.67 0.68 2.34 0 2 C0 1.34 0 0.68 0 0 Z " fill="#C273D8" transform="translate(1018,86)"/>
<path d="M0 0 C0 4.13997696 -2.16832917 6.45607031 -4.5 9.6875 C-4.92925781 10.29400391 -5.35851562 10.90050781 -5.80078125 11.52539062 C-6.86093138 13.02138026 -7.92965571 14.511287 -9 16 C-9.33 15.34 -9.66 14.68 -10 14 C-9.505 13.46375 -9.01 12.9275 -8.5 12.375 C-6.62510456 9.40641555 -6.76498575 7.44687573 -7 4 C-5.68 4 -4.36 4 -3 4 C-1.22590192 2.07977297 -1.22590192 2.07977297 0 0 Z " fill="#C07BD5" transform="translate(940,54)"/>
<path d="M0 0 C3.11373372 1.49920512 6.12228205 3.08152136 9 5 C9 5.66 9 6.32 9 7 C10.98 6.67 12.96 6.34 15 6 C15.33 7.65 15.66 9.3 16 11 C9.38832678 9.3470817 3.78195592 5.67293388 0 0 Z " fill="#4C45C6" transform="translate(678,148)"/>
<path d="M0 0 C0.99 0.33 1.98 0.66 3 1 C-1.95 7.93 -1.95 7.93 -7 15 C-7.33 13.68 -7.66 12.36 -8 11 C-7.34 10.01 -6.68 9.02 -6 8 C-5.34 8 -4.68 8 -4 8 C-3.67 6.35 -3.34 4.7 -3 3 C-2.01 3 -1.02 3 0 3 C0 2.01 0 1.02 0 0 Z " fill="#BC78D0" transform="translate(927,71)"/>
<path d="M0 0 C0.70584233 2.47306239 1.02474485 3.86213584 0.5625 6.4375 C-1.76016161 10.24666504 -4.98505652 12.15757852 -9 14 C-12 14.3125 -12 14.3125 -14 14 C-11 12 -11 12 -7.5625 10.375 C-3.24531109 7.97859429 -1.74602132 4.46807941 0 0 Z " fill="#4C45BF" transform="translate(731,133)"/>
<path d="M0 0 C1.81240887 2.63322626 1.41874131 4.29846601 1.03515625 7.4296875 C0.926875 8.40035156 0.81859375 9.37101562 0.70703125 10.37109375 C0.28515625 12.8671875 0.28515625 12.8671875 -0.71484375 14.8671875 C-1.37484375 14.8671875 -2.03484375 14.8671875 -2.71484375 14.8671875 C-2.54984375 14.3721875 -2.38484375 13.8771875 -2.21484375 13.3671875 C-1.50795557 9.83274661 -1.6547922 6.47028049 -1.71484375 2.8671875 C-3.69484375 2.2071875 -5.67484375 1.5471875 -7.71484375 0.8671875 C-7.71484375 0.5371875 -7.71484375 0.2071875 -7.71484375 -0.1328125 C-2.23047662 -1.47343558 -2.23047662 -1.47343558 0 0 Z " fill="#5046CE" transform="translate(434.71484375,97.1328125)"/>
<path d="M0 0 C0.598125 0.495 1.19625 0.99 1.8125 1.5 C7.53458003 4.19274354 13.67964075 3.62924997 19.6875 2 C20.450625 1.67 21.21375 1.34 22 1 C22 1.66 22 2.32 22 3 C17.84342132 4.99926693 14.46222599 5.24106633 9.875 5.1875 C8.65554688 5.18105469 7.43609375 5.17460938 6.1796875 5.16796875 C3 5 3 5 0 4 C0 2.68 0 1.36 0 0 Z " fill="#4E46C2" transform="translate(406,114)"/>
<path d="M0 0 C0.33 1.32 0.66 2.64 1 4 C-0.65 4.33 -2.3 4.66 -4 5 C-5.00259507 8.00778521 -5.30314642 10.53820647 -5.5625 13.6875 C-5.64628906 14.68136719 -5.73007812 15.67523438 -5.81640625 16.69921875 C-5.87699219 17.45847656 -5.93757812 18.21773437 -6 19 C-6.33 19 -6.66 19 -7 19 C-8.0735426 6.40717489 -8.0735426 6.40717489 -5.44140625 2.95703125 C-3.5 1.625 -3.5 1.625 0 0 Z " fill="#BA78CD" transform="translate(974,109)"/>
<path d="M0 0 C1.32 0.33 2.64 0.66 4 1 C4 1.66 4 2.32 4 3 C4.66 3.66 5.32 4.32 6 5 C5.67 5.99 5.34 6.98 5 8 C5.99 8 6.98 8 8 8 C7.67 9.32 7.34 10.64 7 12 C6.01287122 10.75627811 5.03560095 9.50472782 4.0625 8.25 C3.51722656 7.55390625 2.97195312 6.8578125 2.41015625 6.140625 C1.02574346 4.03907872 0.43713013 2.45678201 0 0 Z " fill="#534ACA" transform="translate(56,109)"/>
<path d="M0 0 C2.5363613 1.01454452 3.79351461 1.6853556 5.3125 4 C5.539375 4.66 5.76625 5.32 6 6 C5.67 6.66 5.34 7.32 5 8 C6.65 8 8.3 8 10 8 C8.68 8.99 7.36 9.98 6 11 C3.52140092 8.7991151 2.38789634 6.93627031 1.3125 3.8125 C1.06113281 3.09707031 0.80976563 2.38164063 0.55078125 1.64453125 C0.36902344 1.10183594 0.18726563 0.55914062 0 0 Z " fill="#5049C4" transform="translate(390,69)"/>
<path d="M0 0 C0.33 0.66 0.66 1.32 1 2 C0.02616054 3.68208635 -0.97695052 5.34738161 -2 7 C-2.165 7.7425 -2.33 8.485 -2.5 9.25 C-2.665 9.8275 -2.83 10.405 -3 11 C-3.99 11.33 -4.98 11.66 -6 12 C-7.37195574 13.29355827 -8.71182656 14.62298702 -10 16 C-8.55797524 11.84848662 -6.4989562 8.70021555 -3.875 5.1875 C-3.15054688 4.21167969 -2.42609375 3.23585937 -1.6796875 2.23046875 C-0.84824219 1.12638672 -0.84824219 1.12638672 0 0 Z " fill="#BB77CE" transform="translate(915,60)"/>
<path d="M0 0 C0.66 0.33 1.32 0.66 2 1 C1.67 1.99 1.34 2.98 1 4 C-0.3921875 4.37125 -0.3921875 4.37125 -1.8125 4.75 C-6.29773677 6.50891638 -6.94783752 8.7378164 -9 13 C-9.66 13 -10.32 13 -11 13 C-9.23573074 7.85421466 -6.82580252 4.30414466 -2.375 1.125 C-1.59125 0.75375 -0.8075 0.3825 0 0 Z " fill="#514ABE" transform="translate(398,89)"/>
<path d="M0 0 C0 0.99 0 1.98 0 3 C-0.99 3.33 -1.98 3.66 -3 4 C-2.690625 5.0725 -2.38125 6.145 -2.0625 7.25 C-1.33187904 9.82866222 -0.62517096 12.39512102 0 15 C-1.32 14.34 -2.64 13.68 -4 13 C-4 9.37 -4 5.74 -4 2 C-2.68 1.34 -1.36 0.68 0 0 Z " fill="#BD7CD2" transform="translate(800,88)"/>
<path d="M0 0 C3 4 6 8 9 12 C7.02 11.34 5.04 10.68 3 10 C3 9.01 3 8.02 3 7 C2.34 7 1.68 7 1 7 C1 6.01 1 5.02 1 4 C0.34 4 -0.32 4 -1 4 C-0.67 2.68 -0.34 1.36 0 0 Z " fill="#4E49C3" transform="translate(696,103)"/>
<path d="M0 0 C0.33 0 0.66 0 1 0 C1.04898437 0.98742187 1.09796875 1.97484375 1.1484375 2.9921875 C1.22320312 4.27351563 1.29796875 5.55484375 1.375 6.875 C1.44460938 8.15117188 1.51421875 9.42734375 1.5859375 10.7421875 C1.67241106 14.08061699 1.67241106 14.08061699 4 16 C4.125 19.125 4.125 19.125 4 22 C0.15864483 17.15655217 -0.13567328 13.34085223 -0.0625 7.3125 C-0.05798828 6.61060547 -0.05347656 5.90871094 -0.04882812 5.18554688 C-0.03706927 3.45699462 -0.01913454 1.72848635 0 0 Z " fill="#534DC6" transform="translate(304,91)"/>
<path d="M0 0 C0.66 0 1.32 0 2 0 C2.13277344 0.74765625 2.26554688 1.4953125 2.40234375 2.265625 C2.57894531 3.25046875 2.75554687 4.2353125 2.9375 5.25 C3.19853516 6.71179688 3.19853516 6.71179688 3.46484375 8.203125 C3.90379729 10.49721795 4.40348592 12.74291971 5 15 C4.01 15 3.02 15 2 15 C0.53329887 9.77487721 -0.22577402 5.4185766 0 0 Z " fill="#4E49C4" transform="translate(233,92)"/>
<path d="M0 0 C0.99 0.33 1.98 0.66 3 1 C1.83917375 4.48247874 1.09067524 4.88819244 -1.9375 6.75 C-2.64777344 7.19859375 -3.35804688 7.6471875 -4.08984375 8.109375 C-4.72019531 8.40328125 -5.35054687 8.6971875 -6 9 C-6.66 8.67 -7.32 8.34 -8 8 C-7.34 7.01 -6.68 6.02 -6 5 C-5.01 5 -4.02 5 -3 5 C-3.33 4.01 -3.66 3.02 -4 2 C-2.35 2.33 -0.7 2.66 1 3 C0.67 2.01 0.34 1.02 0 0 Z " fill="#BD74D3" transform="translate(1023,98)"/>
<path d="M0 0 C-0.99 0.33 -1.98 0.66 -3 1 C-3 2.98 -3 4.96 -3 7 C-3.66 6.34 -4.32 5.68 -5 5 C-8.08347826 4.83318891 -8.08347826 4.83318891 -11 5 C-4.36842105 -2.18421053 -4.36842105 -2.18421053 0 0 Z " fill="#4A40D7" transform="translate(74,64)"/>
<path d="M0 0 C0 3.69418201 -1.28179295 5.77836178 -3 9 C-3.66 9 -4.32 9 -5 9 C-4.67 9.99 -4.34 10.98 -4 12 C-5.32 11.67 -6.64 11.34 -8 11 C-5.36 7.37 -2.72 3.74 0 0 Z " fill="#BC7BD1" transform="translate(874,119)"/>
<path d="M0 0 C4.29 0.66 8.58 1.32 13 2 C12.67 2.66 12.34 3.32 12 4 C7.71 4 3.42 4 -1 4 C-0.67 2.68 -0.34 1.36 0 0 Z " fill="#D851E7" transform="translate(869,128)"/>
<path d="M0 0 C-2.36762941 2.36762941 -3.70059833 2.58455766 -6.9375 3.25 C-7.81277344 3.44078125 -8.68804687 3.6315625 -9.58984375 3.828125 C-12 4 -12 4 -15 2 C-12.69 2 -10.38 2 -8 2 C-8 1.34 -8 0.68 -8 0 C-4.71023192 -1.09658936 -3.28696233 -0.79953138 0 0 Z " fill="#4840CC" transform="translate(505,129)"/>
<path d="M0 0 C2.50037734 2.17424117 3.43628586 3.73045798 4 7 C2.68 7 1.36 7 0 7 C-0.33 7.66 -0.66 8.32 -1 9 C-1.66 8.67 -2.32 8.34 -3 8 C-2.5359375 7.13375 -2.5359375 7.13375 -2.0625 6.25 C-1.07416636 4.15705816 -0.4831387 2.25464725 0 0 Z " fill="#5149D0" transform="translate(201,73)"/>
<path d="M0 0 C0.5534764 2.07553648 1 3.84365964 1 6 C-2.46153846 9 -2.46153846 9 -5 9 C-3.7508258 5.54074837 -2.32472205 2.85306797 0 0 Z " fill="#5049CA" transform="translate(62,70)"/>
<path d="M0 0 C2.16874252 0.50603992 3.99967627 0.99983813 6 2 C8.0374763 2.22858114 10.08040303 2.41024278 12.125 2.5625 C13.76855469 2.68818359 13.76855469 2.68818359 15.4453125 2.81640625 C16.28835938 2.87699219 17.13140625 2.93757812 18 3 C18 3.33 18 3.66 18 4 C15.75106046 4.10823773 13.50062425 4.18569645 11.25 4.25 C9.37054688 4.31960937 9.37054688 4.31960937 7.453125 4.390625 C4 4 4 4 1.546875 1.984375 C1.03640625 1.32953125 0.5259375 0.6746875 0 0 Z " fill="#4F46C3" transform="translate(277,128)"/>
<path d="M0 0 C2.12508244 3.18762365 2.5020163 5.26512223 3 9 C3.66 9 4.32 9 5 9 C5.33 10.98 5.66 12.96 6 15 C1.80031099 10.24035245 0 6.38380544 0 0 Z " fill="#514DBF" transform="translate(132,102)"/>
<path d="M0 0 C-0.9075 0.598125 -1.815 1.19625 -2.75 1.8125 C-5.22901481 3.48106766 -7.63317911 5.17936855 -10 7 C-10.33 5.68 -10.66 4.36 -11 3 C-10.01 3 -9.02 3 -8 3 C-8 2.34 -8 1.68 -8 1 C-3.375 -1.125 -3.375 -1.125 0 0 Z " fill="#514AC2" transform="translate(709,75)"/>
<path d="M0 0 C0 0.66 0 1.32 0 2 C-0.99 2 -1.98 2 -3 2 C-3 3.98 -3 5.96 -3 8 C-3.66 8 -4.32 8 -5 8 C-5 7.01 -5 6.02 -5 5 C-5.66 5 -6.32 5 -7 5 C-5.64703851 0.94111554 -4.27479763 0 0 0 Z " fill="#BC75D5" transform="translate(855,56)"/>
<path d="M0 0 C5.68748885 1.25124755 8.72847508 3.04102568 13 7 C9.34899606 7 7.89878202 5.9552415 4.8125 4.0625 C3.46091797 3.24458984 3.46091797 3.24458984 2.08203125 2.41015625 C1.39496094 1.94480469 0.70789063 1.47945313 0 1 C0 0.67 0 0.34 0 0 Z " fill="#BA75CD" transform="translate(831,121)"/>
<path d="M0 0 C0.66 0.33 1.32 0.66 2 1 C0.73548068 2.31858428 -0.53685475 3.62967631 -1.8125 4.9375 C-2.52019531 5.66839844 -3.22789062 6.39929688 -3.95703125 7.15234375 C-6 9 -6 9 -9 10 C-7.42881935 5.28645804 -4.06181386 2.70787591 0 0 Z " fill="#4F47BA" transform="translate(577,117)"/>
<path d="M0 0 C2.73370045 2.36092311 3.91097645 4.56538728 5 8 C5 9.32 5 10.64 5 12 C4.34 12 3.68 12 3 12 C2.49166409 10.75336669 1.99368855 9.50250613 1.5 8.25 C1.2215625 7.55390625 0.943125 6.8578125 0.65625 6.140625 C0 4 0 4 0 0 Z " fill="#4E48C2" transform="translate(374,74)"/>
<path d="M0 0 C0.99 0.33 1.98 0.66 3 1 C3 3 3 3 1.0625 5 C0.381875 5.66 -0.29875 6.32 -1 7 C-1.33 7.66 -1.66 8.32 -2 9 C-2.66 9 -3.32 9 -4 9 C-4 8.01 -4 7.02 -4 6 C-3.34 5.67 -2.68 5.34 -2 5 C-1.6278958 3.67696283 -1.29369827 2.34262065 -1 1 C-0.67 0.67 -0.34 0.34 0 0 Z " fill="#4841D0" transform="translate(620,77)"/>
<path d="M0 0 C1.65 1.32 3.3 2.64 5 4 C4.67 4.99 4.34 5.98 4 7 C3.01 7 2.02 7 1 7 C0.34 6.34 -0.32 5.68 -1 5 C-0.625 2.375 -0.625 2.375 0 0 Z " fill="#4F44D2" transform="translate(443,64)"/>
<path d="M0 0 C5.3310177 2.61521623 7.77546166 4.24237134 10 10 C5.99245833 8.66415278 4.62523764 6.23106172 2 3 C1.34 2.67 0.68 2.34 0 2 C0 1.34 0 0.68 0 0 Z " fill="#4D47C1" transform="translate(724,61)"/>
<path d="M0 0 C-1 3 -1 3 -3.1875 4.1875 C-6.25390311 5.07334979 -8.82438155 5.14770318 -12 5 C-12 4.67 -12 4.34 -12 4 C-10.35 4 -8.7 4 -7 4 C-7 3.34 -7 2.68 -7 2 C-2.25 0 -2.25 0 0 0 Z " fill="#443DCE" transform="translate(734,155)"/>
<path d="M0 0 C1.258125 0.12375 2.51625 0.2475 3.8125 0.375 C4.87404297 0.47941406 4.87404297 0.47941406 5.95703125 0.5859375 C8 1 8 1 11 3 C9.0625 3.5625 9.0625 3.5625 7 4 C6.67 3.67 6.34 3.34 6 3 C3.66702567 2.95907063 1.33294775 2.95758277 -1 3 C-0.67 2.01 -0.34 1.02 0 0 Z " fill="#504ABE" transform="translate(359,109)"/>
<path d="M0 0 C-3.63 1.98 -7.26 3.96 -11 6 C-9.89210592 2.67631776 -9.51563783 2.38436907 -6.625 0.75 C-6.01914062 0.39421875 -5.41328125 0.0384375 -4.7890625 -0.328125 C-3 -1 -3 -1 0 0 Z " fill="#BC72CF" transform="translate(850,80)"/>
<path d="M0 0 C2.86724686 0.57344937 3.8614515 0.8614515 6 3 C1.375 5.125 1.375 5.125 -2 4 C-1.34 2.68 -0.68 1.36 0 0 Z " fill="#4A43D7" transform="translate(400,72)"/>
<path d="M0 0 C0 0.66 0 1.32 0 2 C-2.76452033 3.38226016 -5.0461363 3.09525387 -8.125 3.0625 C-9.22070312 3.05347656 -10.31640625 3.04445312 -11.4453125 3.03515625 C-12.70988281 3.01775391 -12.70988281 3.01775391 -14 3 C-14 2.67 -14 2.34 -14 2 C-13.06027344 1.90912109 -13.06027344 1.90912109 -12.1015625 1.81640625 C-10.87566406 1.69072266 -10.87566406 1.69072266 -9.625 1.5625 C-8.81289063 1.48128906 -8.00078125 1.40007812 -7.1640625 1.31640625 C-4.39098241 0.91095591 -2.91201214 0 0 0 Z " fill="#453FCD" transform="translate(561,129)"/>
<path d="M0 0 C0.33 1.32 0.66 2.64 1 4 C-3.455 5.485 -3.455 5.485 -8 7 C-8 6.34 -8 5.68 -8 5 C-6.25 3.7109375 -6.25 3.7109375 -4 2.375 C-3.2575 1.92898437 -2.515 1.48296875 -1.75 1.0234375 C-1.1725 0.68570313 -0.595 0.34796875 0 0 Z " fill="#4F45C3" transform="translate(357,112)"/>
<path d="M0 0 C2.475 0.495 2.475 0.495 5 1 C3.8141763 4.37503669 2.72426311 6.64722731 0 9 C0.66666667 6.33333333 1.33333333 3.66666667 2 1 C1.34 0.67 0.68 0.34 0 0 Z " fill="#4B47BC" transform="translate(371,112)"/>
<path d="M0 0 C0.99 0 1.98 0 3 0 C2.67 1.65 2.34 3.3 2 5 C0.35 5.33 -1.3 5.66 -3 6 C-1.125 1.125 -1.125 1.125 0 0 Z " fill="#C070DA" transform="translate(889,97)"/>
<path d="M0 0 C-3 2 -3 2 -5 3 C-5.99 2.34 -6.98 1.68 -8 1 C-8 0.34 -8 -0.32 -8 -1 C-4.59745511 -2.2151946 -3.06748874 -1.86240388 0 0 Z " fill="#443BD8" transform="translate(412,60)"/>
<path d="M0 0 C1.86323318 0.25288812 3.71708432 0.57690153 5.5625 0.9375 C6.57441406 1.13214844 7.58632812 1.32679688 8.62890625 1.52734375 C9.80259766 1.76130859 9.80259766 1.76130859 11 2 C11 2.33 11 2.66 11 3 C5.06 3.495 5.06 3.495 -1 4 C-1 1 -1 1 0 0 Z " fill="#453EDE" transform="translate(81,128)"/>
<path d="M0 0 C0.99 0 1.98 0 3 0 C1.52307692 4.67692308 1.52307692 4.67692308 -1.125 6.3125 C-2.053125 6.6528125 -2.053125 6.6528125 -3 7 C-1.125 2.25 -1.125 2.25 0 0 Z " fill="#BD75D5" transform="translate(892,120)"/>
<path d="M0 0 C3.67420866 0.30618405 4.78135513 0.75771784 7.3125 3.5625 C8.1478125 4.7690625 8.1478125 4.7690625 9 6 C8.67 6.66 8.34 7.32 8 8 C6.66372225 6.85760183 5.33104612 5.71098945 4 4.5625 C3.2575 3.92441406 2.515 3.28632812 1.75 2.62890625 C1.1725 2.09136719 0.595 1.55382812 0 1 C0 0.67 0 0.34 0 0 Z " fill="#5149BF" transform="translate(721,75)"/>
<path d="M0 0 C2.04119788 1.61594832 4.04072937 3.2856382 6 5 C6 5.66 6 6.32 6 7 C4.35 7 2.7 7 1 7 C0.67 4.69 0.34 2.38 0 0 Z " fill="#4E46CA" transform="translate(368,67)"/>
<path d="M0 0 C-5.14285714 4.42857143 -5.14285714 4.42857143 -9 5 C-9 4.34 -9 3.68 -9 3 C-6.04341306 0.15291628 -4.05047276 -0.3375394 0 0 Z " fill="#4945C3" transform="translate(194,125)"/>
<path d="M0 0 C0.66 0.33 1.32 0.66 2 1 C1.01 2.98 0.02 4.96 -1 7 C-2.32 6.34 -3.64 5.68 -5 5 C-4.34 5 -3.68 5 -3 5 C-3 4.34 -3 3.68 -3 3 C-2.34 3 -1.68 3 -1 3 C-0.67 2.01 -0.34 1.02 0 0 Z " fill="#4D46C5" transform="translate(238,80)"/>
<path d="M0 0 C2.375 -0.1875 2.375 -0.1875 5 0 C5.66 0.99 6.32 1.98 7 3 C6.67 3.99 6.34 4.98 6 6 C3.97945196 4.35830472 1.97956942 2.69088222 0 1 C0 0.67 0 0.34 0 0 Z " fill="#5046C6" transform="translate(262,76)"/>
<path d="M0 0 C1.9375 0.3125 1.9375 0.3125 4 1 C4.33 1.99 4.66 2.98 5 4 C2 5 2 5 -1 4 C-0.67 2.68 -0.34 1.36 0 0 Z " fill="#4E46D3" transform="translate(680,75)"/>
<path d="M0 0 C2.97 0.495 2.97 0.495 6 1 C5.67 1.99 5.34 2.98 5 4 C2.36 3.67 -0.28 3.34 -3 3 C-2.01 2.67 -1.02 2.34 0 2 C0 1.34 0 0.68 0 0 Z " fill="#443DDE" transform="translate(349,128)"/>
<path d="M0 0 C2 0 2 0 4.125 1.875 C6 4 6 4 6 6 C4.35 5.67 2.7 5.34 1 5 C0.67 3.35 0.34 1.7 0 0 Z " fill="#4843D3" transform="translate(472,123)"/>
<path d="M0 0 C0.99 0.33 1.98 0.66 3 1 C0.6875 3.0625 0.6875 3.0625 -2 5 C-2.99 4.67 -3.98 4.34 -5 4 C-2.6875 1.9375 -2.6875 1.9375 0 0 Z " fill="#433DC5" transform="translate(433,122)"/>
<path d="M0 0 C1.98 0 3.96 0 6 0 C6.66 1.65 7.32 3.3 8 5 C4.62496331 3.8141763 2.35277269 2.72426311 0 0 Z " fill="#4E47C6" transform="translate(144,124)"/>
<path d="M0 0 C1.65 0.33 3.3 0.66 5 1 C2.31158141 3.25245881 0.35358125 4.88213958 -3 6 C-3 4 -3 4 -1.5 2.4375 C-0.7575 1.7259375 -0.7575 1.7259375 0 1 C0 0.67 0 0.34 0 0 Z " fill="#BB74D8" transform="translate(995,115)"/>
<path d="M0 0 C0.66 1.32 1.32 2.64 2 4 C0.625 5.5 0.625 5.5 -1 7 C-1.66 7 -2.32 7 -3 7 C-1.125 1.125 -1.125 1.125 0 0 Z " fill="#4F4AC6" transform="translate(514,74)"/>
</svg>
